<?xml version="1.0" encoding="UTF-8" standalone="no"?>
<!-- Created with Inkscape (http://www.inkscape.org/) -->

<svg
   width="45.257881mm"
   height="49.579384mm"
   viewBox="0 0 45.257881 49.579384"
   version="1.1"
   id="svg1"
   xml:space="preserve"
   inkscape:version="1.4.3 (0d15f75042, 2025-12-25)"
   sodipodi:docname="icon.svg"
   xmlns:inkscape="http://www.inkscape.org/namespaces/inkscape"
   xmlns:sodipodi="http://sodipodi.sourceforge.net/DTD/sodipodi-0.dtd"
   xmlns="http://www.w3.org/2000/svg"
   xmlns:svg="http://www.w3.org/2000/svg"><sodipodi:namedview
     id="namedview1"
     pagecolor="#ffffff"
     bordercolor="#000000"
     borderopacity="0.25"
     inkscape:showpageshadow="2"
     inkscape:pageopacity="0.0"
     inkscape:pagecheckerboard="0"
     inkscape:deskcolor="#d1d1d1"
     inkscape:document-units="mm"
     showguides="false"
     inkscape:zoom="3.5669753"
     inkscape:cx="120.83067"
     inkscape:cy="94.057282"
     inkscape:window-width="2048"
     inkscape:window-height="1252"
     inkscape:window-x="0"
     inkscape:window-y="0"
     inkscape:window-maximized="1"
     inkscape:current-layer="layer1" /><defs
     id="defs1" /><g
     inkscape:label="Layer 1"
     inkscape:groupmode="layer"
     id="layer1"
     transform="translate(-1.1543072,-1.0606255)"><path
       style="fill:#b1713b;fill-opacity:1;stroke-width:0.264583"
       d="m 3.1650863,39.610918 c 0,0 0.834478,0.574863 1.483516,0.686125 0.649039,0.111266 1.07555,0.649039 1.316621,0.70467 0.241072,0.05563 0.927198,-0.09272 1.112638,0.01855 0.185439,0.111265 0.778846,0.649039 0.964285,0.70467 0.18544,0.05563 0.556319,0.09272 0.723215,0.278159 0.166895,0.185441 0.574862,0.259617 0.834477,0.315248 0.259616,0.05563 0.6119507,-0.01855 0.8159337,0.203984 0.203984,0.222527 0.352336,0.389421 0.667583,0.352335 0.315247,-0.03709 0.574863,-0.129808 0.871566,0.09272 0.296703,0.222528 1.038461,0.537774 1.223901,0.537774 0.18544,0 0.834478,-0.01855 0.815934,0.241072 -0.01855,0.259615 -0.259615,0.296704 0.18544,0.445053 0.445055,0.148352 1.390796,0.407969 1.520604,0.574863 0.129808,0.166896 0.834478,-0.01855 0.853022,0.148352 0.01855,0.166896 0.70467,0.407969 0.834478,0.389424 0.129808,-0.01855 1.205357,0.630494 1.390797,0.649039 0.185439,0.01855 1.390796,0.09272 1.40934,0.203983 0.01854,0.111263 -0.129807,0.259615 0.03709,0.278159 0.166896,0.01855 0.556319,-0.05563 0.98283,0.111263 0.426511,0.166896 1.613324,0.945742 1.817308,0.890111 0.203983,-0.05563 0.51923,-0.278159 0.574862,0 0.05563,0.278159 -0.05563,0.33379 0.370879,0.315246 0.426511,-0.01855 0.89011,-0.01855 1.07555,0.12981 0.185439,0.148352 0.315247,0.556318 0.445055,0.556318 0.129807,0 0.927198,-0.111265 1.483516,0.07418 0.55632,0.185438 0.0186,0.500687 0.63049,0.500687 0.61196,0 1.18682,0.203983 1.33517,0.315245 0.14835,0.111266 0.50069,-0.111262 0.77884,0.129808 0.27817,0.241072 1.18682,0.241072 1.48352,0.352337 0.2967,0.111263 0.85303,0.315246 0.85303,0.667581 0,0.352335 -0.14836,0.01855 0.35233,0.03709 0.50069,0.01855 1.53915,0.222526 1.92857,0.05563 0.38942,-0.166897 1.40934,-0.834478 1.72459,-1.335164 0.31525,-0.500687 0.16689,-0.83448 0.27816,-0.982832 0.11126,-0.148352 0.37088,-0.815933 0.44505,-1.372251 0.0742,-0.556318 0.0927,-0.593408 0.27816,-1.038463 0.18544,-0.445053 0.24107,-0.686126 0.74176,-1.149726 0.50069,-0.463598 1.78022,-2.670328 2.00275,-3.43063 0.22253,-0.760304 0.4636,-1.112639 0.5934,-1.112639 0.12981,0 0.0556,-0.296704 0.22253,-0.834477 0.1669,-0.537774 0.0742,-0.519232 0.64904,-1.464972 0.57486,-0.945742 1.87294,-3.634615 2.22528,-4.190933 0.35233,-0.556321 0.37088,-0.37088 0.38942,-0.704673 0.0186,-0.33379 0.37088,-1.40934 0.50068,-1.576234 0.12981,-0.166897 0.29671,-1.131181 0.40797,-1.390798 0.11127,-0.259615 0.22253,-0.686126 0.25962,-1.205357 0.0371,-0.519232 0.0556,-0.667581 0.0742,-1.335165 0.0185,-0.667582 0.22253,-1.631868 0.33379,-2.447802 0.11126,-0.815934 0.0927,-1.835852 0.35233,-2.114011 0.25962,-0.278159 0.11127,0.01854 0.18544,-0.593406 0.0742,-0.611951 -0.22252,-1.112638 -0.0742,-1.131182 0.14836,-0.01854 0.51923,0.667583 0.48215,0.296704 -0.0371,-0.37088 -0.35234,-0.797391 -0.31525,-0.908654 0.0371,-0.111264 0.20398,-0.18544 0.20398,-0.18544 0,0 -0.22252,-0.148351 -0.22252,-0.389423 0,-0.241071 0.0371,-0.574863 0.16689,-0.61195 0.12981,-0.03709 -0.20398,-0.333792 -0.20398,-0.333792 0,0 -0.12981,-0.05563 -0.24108,-1.001373 -0.11126,-0.945742 -0.25961,-1.07555 -0.33379,-1.298077 -0.0742,-0.222528 -0.27815,-0.500687 -0.24107,-0.815934 0.0371,-0.315247 -0.25961,-0.111264 -0.33379,-0.519231 -0.0742,-0.407968 -0.17881,-0.722905 -0.4804,-1.063831 -0.30159,-0.340927 -0.59662,-1.435825 -1.16046,-2.052115 -0.56384,-0.616296 -0.63596,-1.671856 -0.97689,-1.757088 -0.34093,-0.08523 -0.97033,-0.9441045 -1.27192,-0.9309915 -0.30159,0.01311 -0.23602,-0.07868 -0.36059,-0.485165 -0.12457,-0.406489 -1.92755,-2.039003 -2.21602,-2.248804 -0.28848,-0.2098 -1.74398,-1.521056 -2.51762,-1.527612 -0.77364,-0.0066 -0.0787,-0.583509 -0.4196,-0.74086 -0.34092,-0.157351 -1.47516,-0.734303 -1.82264,-0.734303 -0.34749,0 -0.97033,-0.531059 -1.28504,-0.478608 -0.3147,0.05245 -1.31781,-0.340927 -1.29814,-0.557284 0.0197,-0.216357 -1.00311,0.05901 -1.54728,-0.09834 -0.54417,-0.157354 -1.9341,-0.649075 -2.983106,-0.681856 -1.049005,-0.03278 -1.344038,-0.04589 -1.580064,-0.05901 -0.236026,-0.01311 -0.104901,-0.203245 -0.439271,-0.203245 -0.33437,0 -2.87165,0.301589 -4.025555,0.668741 -1.153905,0.367151 -1.075229,-0.07867 -1.475162,0.236026 -0.399933,0.314701 -0.249139,0.452383 -0.649072,0.452383 -0.399933,0 -0.399933,-0.144238 -0.655628,-0.150794 -0.255695,-0.0066 -0.452383,0.327814 -0.714634,0.373708 -0.262251,0.04589 -0.439271,-0.03278 -0.583509,0.15735 -0.144238,0.190132 -0.08523,0.491721 -0.393377,0.701522 -0.308145,0.209801 -0.773641,0.190132 -1.121123,0.51139 -0.347483,0.321258 -0.327814,0.485165 -0.832648,1.108011 -0.504833,0.622846 -0.767084,0.84576 -0.852316,1.081786 -0.08523,0.236026 0.09834,0.380264 -0.04589,0.767084 -0.144238,0.386821 -0.288476,0.708079 -0.28192,1.081786 0.0066,0.373708 0.314702,1.07523 0.08523,1.153905 -0.22947,0.07867 -0.56384,-0.02623 -0.727747,-0.01311 -0.163907,0.01311 -0.465496,0.3540395 -0.537615,0.4851655 -0.07212,0.131125 -0.118013,0.38682 -0.413045,0.406489 -0.295033,0.01967 -0.485165,0.183576 -0.708079,0.413046 -0.222913,0.22947 -0.8785407,0.812979 -0.9703287,1.016223 -0.09179,0.203245 -0.177019,0.05901 -0.249138,0.157351 -0.07212,0.09834 0.03934,0.216357 -0.124569,0.373708 -0.163907,0.157351 -0.373708,0.747416 -0.590065,0.84576 -0.216358,0.09834 -0.858873,0.950659 -1.147349,1.527612 -0.288476,0.576953 -0.826091,1.776752 -0.885098,2.124235 -0.05901,0.347483 -0.118013,1.226024 -0.209801,1.376818 -0.09179,0.150795 -0.452383,0.504834 -0.655627,0.904767 -0.203245,0.399933 -0.262251,1.035892 -0.452384,1.468606 -0.190132,0.432714 -0.622846,1.363706 -0.708078,2.117678 -0.08523,0.753972 -0.196688,0.498277 -0.242582,0.767085 -0.04589,0.268807 -0.06556,0.878541 -0.209801,1.049004 -0.144238,0.170463 -0.236026,0.485165 -0.28192,0.767085 -0.04589,0.28192 -0.01311,1.167017 -0.144238,1.429269 -0.131126,0.262251 -0.452383,1.140793 -0.550727,1.180131 -0.09834,0.03934 -0.301589,0.609732 -0.295033,0.82609 0.0066,0.216358 0.06556,0.662183 -0.268807,1.606288 -0.334371,0.944105 -0.74086,1.658739 -0.747416,1.875097 -0.0066,0.216355 0.07212,0.708078 -0.07867,0.950658 -0.150795,0.242584 -0.472052,0.524502 -0.465496,1.035894 0.0066,0.51139 -0.268807,1.311254 -0.124569,1.698075 0.144238,0.386821 0.06556,1.219467 0.268807,1.514501 0.203245,0.295032 0.570396,0.891654 0.760529,1.049005 0.190131,0.15735 0.908868,0.730202 0.939598,0.742087 z"
       id="path1" /><path
       style="fill:#c78b58;fill-opacity:1;stroke-width:0.264583"
       d="m 43.223467,27.31197 c 0,0 -0.76053,-1.940659 -1.23258,-2.491386 -0.47205,-0.550727 -1.31126,-1.18013 -0.99655,-1.547282 0.3147,-0.367151 -0.0262,-0.839203 -0.36715,-1.389931 -0.34093,-0.550727 -1.23258,-1.206355 -1.25881,-1.337481 -0.0262,-0.131125 -0.39338,-0.812978 -0.34093,-1.547281 0.0524,-0.734303 -0.65563,-0.996555 -0.91788,-1.258806 -0.26225,-0.262251 -0.78675,-0.629403 -1.3637,-1.23258 -0.57695,-0.603178 -1.25881,-1.416156 -0.99656,-1.809533 0.26225,-0.393377 1.57351,-0.445827 -0.36715,-0.760528 -1.94066,-0.314702 -2.15046,-0.445827 -2.67496,-0.419602 -0.5245,0.02622 -2.17668,-1.18013 -3.25191,-1.416156 -1.07523,-0.236026 -1.86199,-0.157351 -2.51761,0.209801 -0.655633,0.367151 -2.674966,-0.288477 -3.304369,-0.576953 -0.629403,-0.288476 -1.363706,-1.416156 -2.386485,-0.839204 -1.02278,0.576953 -2.622512,1.468607 -3.33059,1.521057 -0.708078,0.05245 -1.861983,0.236026 -3.225689,0.236026 -1.363706,0 -2.648736,0.02622 -3.068338,-0.314701 -0.419602,-0.340927 -0.812979,-0.472052 -0.393377,-1.049005 0.419602,-0.576952 2.202909,-0.603177 2.543836,-0.236026 0.340927,0.367152 -0.262251,1.18013 1.206355,0.550728 1.468607,-0.629403 1.258806,-0.944105 2.045559,-1.232581 0.786754,-0.288476 1.468607,-0.7080785 2.858538,-0.288476 1.389931,0.419602 1.23258,0.891654 2.176684,0.445827 0.944104,-0.445827 0.891654,-0.6556285 2.019334,-0.6294035 1.12768,0.02623 1.18013,-0.1049 2.727412,0.2622515 1.54728,0.367152 2.04556,0.524503 2.93721,0.419602 0.89166,-0.1049 1.33748,0 1.99311,0.367152 0.65563,0.367151 1.18013,0.996554 2.54384,1.258805 1.3637,0.262251 1.49483,0.07867 2.33403,0.262251 0.83921,0.183576 0.94411,-0.445827 2.04556,1.12768 1.10146,1.573507 1.12768,1.966884 1.54728,2.596286 0.41961,0.629403 0.39338,-0.05245 0.86543,1.494832 0.47206,1.547282 0.5245,1.809533 0.91788,2.176684 0.39338,0.367152 0.5245,0.576953 0.94411,1.101455 0.4196,0.524503 1.18012,0.209801 0.97033,1.18013 -0.20981,0.97033 -0.23603,0.944105 -0.0524,1.468607 0.18357,0.524502 0.28847,0.524502 0.55072,1.206355 0.26225,0.681853 0.55073,1.07523 0.23603,1.521057 -0.3147,0.445826 -0.55073,1.206355 -0.91788,1.23258 -0.36715,0.02623 -0.5245,-0.05245 -0.49828,-0.262251 z"
       id="path2" /><path
       style="fill:#9a6233;fill-opacity:1;stroke-width:0.264583"
       d="m 13.090812,7.9316105 c 0.419602,-0.157351 -0.209801,0.340926 0.839204,-0.314702 1.049004,-0.655628 0.524502,-0.524502 1.809533,-0.734303 1.28503,-0.209801 -0.104901,0.05245 1.861983,-0.445827 1.966883,-0.498277 1.101454,-0.629403 2.648736,-0.681853 1.547282,-0.05245 0.708078,-0.314701 2.753637,-0.02623 2.045559,0.288476 0.550728,0.524502 2.858537,0.236026 2.307815,-0.288476 1.337485,-0.891654 3.068335,-0.209801 1.73086,0.681853 1.94066,1.311256 3.19947,1.101455 1.2588,-0.209801 0.4196,-0.944104 1.99311,-0.288476 1.5735,0.655628 2.12423,0.917879 3.40926,1.835758 1.28503,0.917879 2.77986,2.4651605 2.98966,3.6977415 0.20981,1.23258 0.15735,1.678407 0.68186,2.229134 0.5245,0.550728 0.91788,0.891654 1.62595,1.442382 0.70808,0.550727 1.54729,0.340927 1.59974,1.914433 0.0525,1.573507 -0.36715,1.285031 0.28847,2.124234 0.65563,0.839204 1.18013,1.835758 1.28503,1.888209 0.1049,0.05245 -0.7343,-6.844755 -0.86542,-7.211907 -0.13113,-0.367151 -2.91099,-6.6874045 -2.91099,-6.6874045 l -5.06145,-2.570061 -5.009,-2.727412 -7.946207,-1.442381 -5.8482,1.206355 c 0,0 -4.982772,2.045559 -5.035222,2.36026 -0.05245,0.314702 -0.236026,3.304365 -0.236026,3.304365 z"
       id="path3" /></g></svg>
